<svg id="Capa_1" enable-background="new 0 0 512 512" height="512" viewBox="0 0 512 512" width="512" xmlns="http://www.w3.org/2000/svg"><g><path d="m331.621 315.022c-34.915-34.313-40.239-81.823-40.208-107.841l-2.585-2.065h-64.901l-3.34 2.065c.031 26.017-5.292 73.528-40.208 107.841-12.799 12.579-12.272 33.36 1.195 45.223l19.973 17.595 3.279 2.837h101.644l3.983-2.837 19.973-17.595c13.467-11.863 13.995-32.644 1.195-45.223z" fill="#2b4d66"/><path d="m236.312 353.353c-6.488-9.866-6.862-22.547-1.256-32.941 22.184-41.132 23.942-100.953 24.034-115.296h-35.163l-3.34 2.065c.031 26.017-5.292 73.528-40.208 107.841-12.799 12.579-12.272 33.36 1.195 45.223l19.973 17.595 3.279 2.837h42.149c-1.17-10.434-5.802-19.932-10.663-27.324z" fill="#25475b"/><path d="m313.51 174.468h-62.313l-3.932 2.582v1.13c0 14.894 11.172 27.299 25.548 29.267h14.743c15.98 0 29.054-13.074 29.054-29.054v-1.111z" fill="#365e7d"/><path d="m247.758 178.394v-1.111l4.285-2.814h-52.368l-4.285 2.814v1.111c0 15.979 13.074 29.054 29.054 29.054h52.367c-15.979-.001-29.053-13.075-29.053-29.054z" fill="#2b4d66"/><path d="m256 0c-43.361 0-78.512 35.15-78.512 78.511 0 26.171 12.817 49.336 32.504 63.602l3.761 2.48h83.573l4.68-2.48c19.687-14.266 32.504-37.431 32.504-63.602.001-43.361-35.15-78.511-78.51-78.511z" fill="#4a80aa"/><path d="m225.907 78.511c0-34.91 22.792-64.483 54.302-74.69-7.627-2.47-15.758-3.821-24.209-3.821-43.361 0-78.512 35.15-78.512 78.511 0 26.171 12.817 49.336 32.504 63.602l3.761 2.48h48.418l-3.761-2.48c-19.685-14.266-32.503-37.431-32.503-63.602z" fill="#407093"/><path d="m324.929 142.113h-88.386c-6.294 1.343-11.053 6.96-11.053 13.639v7.892c0 6.679 4.759 12.296 11.053 13.639h88.386c7.539 0 13.707-6.169 13.707-13.707v-7.756c.001-7.539-6.168-13.707-13.707-13.707z" fill="#407093"/><path d="m225.731 163.575v-7.756c0-7.539 6.168-13.707 13.707-13.707h-52.367c-7.539 0-13.707 6.168-13.707 13.707v7.756c0 7.539 6.168 13.707 13.707 13.707h52.367c-7.539 0-13.707-6.168-13.707-13.707z" fill="#365e7d"/><path d="m352.168 439.628c-2.846-16.114-17.019-27.758-33.383-27.758l-6.138-3.662h-113.294l-6.138 3.662c-16.364 0-30.537 11.643-33.383 27.758-2.171 12.29-9.353 26.591-28.14 38.34l3.254 4.929h241.577l3.786-4.929c-18.788-11.749-25.97-26.049-28.141-38.34z" fill="#365e7d"/><path d="m212.886 439.628c2.846-16.114 17.019-27.758 33.383-27.758l6.138-3.662h-53.054l-6.138 3.662c-16.364 0-30.537 11.643-33.383 27.758-2.171 12.29-9.353 26.591-28.14 38.34l3.254 4.929h53.054l-3.254-4.929c18.787-11.749 25.97-26.049 28.14-38.34z" fill="#2b4d66"/><path d="m383.871 477.968h-205.623c-6.037 1.351-10.587 6.761-10.587 13.19v7.651c0 6.429 4.55 11.839 10.588 13.19h205.623c7.295 0 13.264-5.969 13.264-13.264v-7.505c-.001-7.293-5.97-13.262-13.265-13.262z" fill="#407093"/><path d="m167.92 498.736v-7.505c0-7.295 5.969-13.264 13.264-13.264h-53.054c-7.295 0-13.264 5.968-13.264 13.264v7.505c0 7.295 5.969 13.264 13.264 13.264h53.054c-7.296 0-13.264-5.969-13.264-13.264z" fill="#365e7d"/><path d="m320.344 377.839h-78.612c-6.02 1.368-10.552 6.77-10.552 13.188v7.656c0 6.418 4.532 11.82 10.552 13.188h78.612c7.295 0 13.264-5.969 13.264-13.264v-7.505c-.001-7.294-5.969-13.263-13.264-13.263z" fill="#407093"/><path d="m231.447 398.607v-7.505c0-7.295 5.969-13.264 13.264-13.264h-53.054c-7.295 0-13.264 5.969-13.264 13.264v7.505c0 7.295 5.969 13.264 13.264 13.264h53.054c-7.295 0-13.264-5.969-13.264-13.264z" fill="#365e7d"/></g></svg>