<?xml version="1.0" encoding="iso-8859-1"?>
<!-- Generator: Adobe Illustrator 16.0.0, SVG Export Plug-In . SVG Version: 6.00 Build 0)  -->
<!DOCTYPE svg PUBLIC "-//W3C//DTD SVG 1.1//EN" "http://www.w3.org/Graphics/SVG/1.1/DTD/svg11.dtd">
<svg version="1.1" id="Capa_1" xmlns="http://www.w3.org/2000/svg" xmlns:xlink="http://www.w3.org/1999/xlink" x="0px" y="0px"
	 width="536.124px" height="536.125px" viewBox="0 0 536.124 536.125" style="enable-background:new 0 0 536.124 536.125;"
	 xml:space="preserve">
<g>
	<path d="M405.053,424.399h-35.92l-34.619-207.689c7.294-0.686,13.01-6.762,13.01-14.236c0-3.759-1.483-7.167-3.854-9.726
		c21.964-20.924,34.678-49.996,34.678-80.895C378.348,50.17,328.166,0,266.493,0c-61.679,0-111.847,50.165-111.847,111.846
		c0,30.574,12.557,59.572,34.25,80.496c-2.583,2.601-4.188,6.177-4.188,10.131c0,7.22,5.337,13.134,12.262,14.162l-30.869,207.764
		h-35.03c-7.35,0-13.317,5.964-13.317,13.323c0,7.353,5.961,13.305,13.317,13.305h0.029v78.253c0,3.782,3.068,6.845,6.845,6.845
		h260.233c3.783,0,6.845-3.062,6.845-6.845v-78.253h0.029c7.353,0,13.317-5.952,13.317-13.305
		C418.37,430.363,412.418,424.399,405.053,424.399z M184.726,124.691c-0.381,0.073-0.756,0.097-1.132,0.097
		c-3.287,0-6.186-2.379-6.747-5.722c-0.109-0.647-10.078-65.881,62.692-91.472c3.558-1.253,7.474,0.63,8.733,4.194
		c1.253,3.558-0.623,7.471-4.188,8.724c-62.04,21.817-54.092,74.083-53.723,76.305C190.979,120.539,188.456,124.073,184.726,124.691
		z M195.664,401.241l25.679-152.38c0.783-4.66,5.19-7.814,9.862-7.01c4.667,0.78,7.808,5.198,7.019,9.859l-25.68,152.374
		c-0.703,4.179-4.33,7.141-8.432,7.141c-0.473,0-0.952-0.036-1.427-0.125C198.017,410.308,194.878,405.892,195.664,401.241z"/>
</g>
<g>
</g>
<g>
</g>
<g>
</g>
<g>
</g>
<g>
</g>
<g>
</g>
<g>
</g>
<g>
</g>
<g>
</g>
<g>
</g>
<g>
</g>
<g>
</g>
<g>
</g>
<g>
</g>
<g>
</g>
</svg>
